<svg xmlns="http://www.w3.org/2000/svg" width="322" height="322" viewBox="0 0 322 322" version="1.1">
	<path d="M 0 161.003 L 0 322.006 161.250 321.753 L 322.500 321.500 322.753 160.750 L 323.006 0 161.503 0 L 0 0 0 161.003 M 0.488 161.500 C 0.488 250.050, 0.606 286.127, 0.750 241.671 C 0.894 197.215, 0.894 124.765, 0.750 80.671 C 0.606 36.577, 0.488 72.950, 0.488 161.500 M 146.099 40.048 C 96.690 46.246, 54.120 83.292, 41.539 131.043 L 39.815 137.586 32.908 138.674 C 24.467 140.003, 19.615 143.355, 16.746 149.841 L 14.730 154.398 17.928 180.949 C 21.436 210.082, 21.987 212.643, 25.705 217.061 C 29.390 221.440, 33.419 223.166, 39.856 223.123 C 49.563 223.058, 67 220.023, 67 218.397 C 67 218.151, 65.488 214.924, 63.640 211.225 C 56.130 196.192, 52.765 181.742, 52.642 164 C 52.476 139.877, 58.516 120.175, 72.134 100.421 C 77.998 91.913, 91.140 78.933, 99.780 73.114 C 131.850 51.516, 173.035 48.194, 206.807 64.481 C 219.682 70.689, 226.092 75.126, 236.171 84.806 C 270.105 117.394, 279.104 166.840, 258.934 209.883 C 256.770 214.500, 255 218.385, 255 218.517 C 255 219.385, 261.770 221.096, 268.923 222.036 C 285.749 224.247, 291.072 223.268, 296.354 216.991 C 299.951 212.716, 300.556 209.911, 304.048 181.335 C 307.577 152.457, 307.412 150.412, 301.053 144.053 C 297.305 140.305, 291.054 138, 284.637 138 C 282.659 138, 282.074 136.957, 280.004 129.750 C 273.771 108.040, 263.208 90.361, 247.147 74.761 C 228.834 56.973, 209.501 46.696, 184.723 41.578 C 175.074 39.585, 155.857 38.823, 146.099 40.048 M 143 70.444 C 114.138 76.555, 90.033 95.306, 77.364 121.500 C 70.435 135.826, 68.671 143.857, 68.579 161.500 C 68.490 178.459, 70.252 187.184, 76.497 200.699 C 85.827 220.894, 104.772 239.508, 123.619 246.999 C 126.853 248.284, 129.665 249.464, 129.867 249.619 C 130.069 249.774, 128.882 252.792, 127.229 256.324 C 123.601 264.078, 118.301 270.170, 111.250 274.694 C 108.362 276.546, 106 278.428, 106 278.876 C 106 279.324, 106.898 280.503, 107.995 281.496 C 109.748 283.082, 111.185 283.223, 119.807 282.658 C 142.785 281.152, 160.734 272.761, 170.078 259.156 C 173.262 254.521, 173.916 254.092, 179.487 252.990 C 193.696 250.180, 209.285 242.669, 220.800 233.087 C 227.039 227.895, 235.588 218.255, 234.722 217.388 C 234.429 217.096, 229.085 217.991, 222.845 219.378 C 210.315 222.162, 191.159 225, 184.898 225 C 181.568 225, 180.278 225.623, 177.491 228.579 L 174.116 232.157 160.469 231.829 C 146.930 231.503, 146.803 231.478, 144.411 228.694 C 141.260 225.027, 141.277 220.632, 144.455 217.455 C 146.828 215.081, 147.373 215, 161 215 C 174.601 215, 175.176 215.085, 177.528 217.438 C 179.934 219.843, 180.096 219.862, 189.733 218.878 C 202.209 217.603, 223.208 213.719, 233.500 210.783 L 241.500 208.500 245.185 201 C 253.306 184.470, 256.039 162.321, 252.225 143.951 C 246.263 115.242, 228.213 91.572, 202.421 78.640 C 189.655 72.239, 179.380 69.803, 163.500 69.412 C 154.177 69.183, 147.328 69.527, 143 70.444 M 122.566 156.343 C 117.463 161.446, 120.408 169, 127.500 169 C 136.947 169, 137.662 156.196, 128.316 154.391 C 125.748 153.895, 124.636 154.273, 122.566 156.343 M 157.364 155.170 C 150.424 158.530, 153.177 169, 161 169 C 168.152 169, 171.056 161.026, 165.611 156.342 C 162.680 153.821, 160.724 153.543, 157.364 155.170 M 190.167 155.750 C 188.350 157.297, 187.506 161.006, 187.899 165.715 C 188.047 167.495, 191.963 169.305, 195.450 169.206 C 201.658 169.030, 204.202 161.111, 199.545 156.455 C 196.662 153.571, 193.044 153.300, 190.167 155.750" stroke="none" fill="black" fill-rule="evenodd"/>
</svg>