<svg xmlns="http://www.w3.org/2000/svg" width="1276" height="1276" viewBox="0 0 1276 1276" version="1.1">
	<path d="M 521.279 373.250 C 508.944 380.126, 487.790 412.501, 479.616 437.010 C 473.532 455.254, 472.495 462.668, 472.558 487.500 C 472.621 512.662, 473.612 519.607, 479.839 538.500 C 487.207 560.854, 503.476 587.259, 517.921 600.310 C 521.571 603.607, 522.583 604, 527.426 604 C 531.768 604, 533.446 603.496, 535.857 601.467 C 542.260 596.079, 542.076 587.342, 535.425 580.965 C 529.234 575.028, 517.664 558.911, 512.734 549.356 C 506.681 537.626, 501.601 522.257, 499.449 509.159 C 496.989 494.192, 497.862 469.192, 501.306 456 C 507.305 433.021, 515.776 417.218, 533.019 396.837 C 539.346 389.358, 540 388.174, 540 384.197 C 540 378.450, 537.507 374.420, 532.781 372.529 C 527.684 370.490, 526.046 370.592, 521.279 373.250 M 729.949 372.579 C 725.434 374.456, 723 378.575, 723 384.341 C 723 388.510, 723.559 389.522, 729.970 396.965 C 749.013 419.075, 759.114 440.387, 763.578 467.878 C 765.577 480.186, 765.057 503.222, 762.527 514.500 C 756.998 539.140, 746.442 559.763, 729.597 578.839 C 725.842 583.091, 722.979 587.298, 722.791 588.839 C 722.204 593.645, 723.811 598.425, 726.963 601.250 C 729.487 603.512, 730.964 604, 735.288 604 C 741.937 604, 745.254 601.428, 755.998 587.942 C 774.075 565.251, 784.842 541.257, 789.509 513.264 C 791.865 499.136, 791.197 469.668, 788.212 456 C 781.820 426.734, 768.762 400.726, 750.806 381.500 C 741.200 371.214, 737.274 369.534, 729.949 372.579 M 555.500 405.160 C 552.324 406.906, 546.169 413.029, 541.586 419 C 509.302 461.066, 510.917 519.701, 545.500 561.131 C 552.851 569.937, 557.892 572.645, 563.915 571.023 C 571.117 569.084, 575.698 560.513, 573.006 554.016 C 572.334 552.393, 568.900 547.788, 565.374 543.782 C 557.805 535.182, 549.984 520.324, 546.803 508.500 C 543.477 496.136, 543.739 476.629, 547.394 464.562 C 551.132 452.216, 557.741 440.020, 566.011 430.207 C 572.425 422.596, 573 421.540, 573 417.361 C 573 414.857, 572.258 411.553, 571.352 410.019 C 568.428 405.068, 560.235 402.557, 555.500 405.160 M 696.288 405.629 C 694.241 406.639, 692.288 408.840, 690.906 411.695 C 688.051 417.592, 689.208 421.641, 695.953 429.349 C 702.863 437.245, 706.654 442.968, 710.511 451.325 C 719.616 471.055, 720.895 493.888, 714.081 515.077 C 710.655 525.730, 705.429 534.821, 697.001 544.788 C 693.612 548.797, 690.444 553.451, 689.963 555.131 C 687.140 564.971, 696.564 573.245, 707.024 570.111 C 709.891 569.252, 712.446 567.080, 717.177 561.481 C 728.873 547.641, 737.226 531.571, 741.338 515 C 750.286 478.946, 739.953 438.687, 714.730 411.323 C 707.946 403.963, 702.855 402.391, 696.288 405.629 M 588.412 437.918 C 584.610 439.553, 575.934 450.379, 571.918 458.500 C 559.885 482.834, 564.118 512.521, 582.525 532.896 C 590.176 541.364, 601.908 539.878, 606.034 529.918 C 607.868 525.489, 606.429 520.863, 601.185 514.328 C 591.619 502.409, 588.783 489.417, 592.899 476.374 C 595.013 469.675, 596.012 467.913, 602.750 458.999 C 605.382 455.517, 606 453.775, 606 449.835 C 606 445.731, 605.487 444.411, 602.716 441.387 C 600.081 438.512, 598.548 437.726, 594.966 437.411 C 592.510 437.196, 589.560 437.424, 588.412 437.918 M 664.418 437.969 C 663.274 438.432, 661.136 440.238, 659.668 441.982 C 657.595 444.446, 657 446.215, 657 449.913 C 657 454.100, 657.577 455.391, 661.796 460.648 C 669.515 470.267, 671.463 475.665, 671.483 487.500 C 671.504 499.722, 669.973 504.225, 662.399 514.223 C 658.022 520, 657 522.082, 657 525.224 C 657 535.239, 665.582 540.901, 674.906 537.039 C 679.107 535.299, 687.042 525.460, 691.451 516.523 C 700.357 498.470, 700.224 477.351, 691.087 458.628 C 682.758 441.564, 673.418 434.328, 664.418 437.969 M 624.007 469.593 C 608.935 476.129, 607.858 497.785, 622.241 505.123 C 635.414 511.844, 651 502.457, 651 487.803 C 651 473.813, 636.630 464.119, 624.007 469.593 M 296.874 727.865 C 291.531 731.253, 289 735.942, 289 742.451 C 289 763.487, 322.466 766.552, 327.994 746.022 C 330.102 738.193, 325.865 729.621, 318.282 726.377 C 316.512 725.620, 311.988 725, 308.228 725 C 302.421 725, 300.711 725.432, 296.874 727.865 M 753 810 L 753 886 769 886 L 785 886 785 857.832 C 785 841.653, 785.473 826.945, 786.112 823.277 C 787.650 814.448, 791.889 808.328, 799 804.672 C 804.008 802.097, 805.238 801.880, 812.744 802.243 C 820.132 802.599, 821.379 802.956, 824.744 805.676 C 833.021 812.366, 833.953 817.570, 833.980 857.250 L 834 886 850.073 886 L 866.147 886 865.774 847.750 C 865.422 811.692, 865.275 809.125, 863.224 802.958 C 860.225 793.941, 855.688 787.502, 848.718 782.371 C 840.599 776.394, 832.385 774, 820 774 C 808.068 774, 799.700 776.320, 791.326 781.950 L 785.500 785.867 785.233 759.934 L 784.967 734 768.983 734 L 753 734 753 810 M 655.233 741.509 C 617.925 750.066, 594.052 781.073, 596.342 818 C 597.086 830.001, 598.991 837.397, 603.944 847.519 C 610.816 861.562, 621.604 872.149, 636.500 879.470 C 648.537 885.385, 655.137 886.998, 670 887.654 C 680.229 888.106, 684.275 887.838, 692.271 886.179 C 707.612 882.995, 722.282 874.949, 730.455 865.236 L 732.983 862.231 722.477 852.502 L 711.970 842.773 707.735 846.662 C 696.735 856.762, 684.136 860.667, 668.243 858.902 C 638.026 855.546, 620.812 821.169, 634.958 792.434 C 647.867 766.212, 684.373 759.971, 706.524 780.200 L 711.670 784.899 721.085 776.363 C 726.263 771.668, 731.154 767.196, 731.953 766.425 C 733.214 765.208, 732.713 764.356, 728.144 759.952 C 720.330 752.420, 711.822 747.363, 701.087 743.869 C 692.419 741.048, 690.062 740.716, 676.500 740.411 C 665.946 740.172, 659.643 740.498, 655.233 741.509 M 171 813.976 L 171 886 223.500 886 L 276 886 276 872 L 276 858 240.508 858 L 205.016 858 204.758 800.250 L 204.500 742.500 187.750 742.226 L 171 741.952 171 813.976 M 1025 764.500 L 1025 778 1016.500 778 L 1008 778 1008 790.500 L 1008 803 1016.500 803 L 1025 803 1025.012 829.250 C 1025.024 856.807, 1025.561 861.326, 1029.806 869.628 C 1032.643 875.177, 1039.964 881.435, 1046.853 884.199 C 1054.573 887.297, 1075.708 887.537, 1083.573 884.616 C 1092.989 881.120, 1092.832 881.672, 1087.977 869.055 C 1085.637 862.975, 1083.537 858, 1083.311 858 C 1083.085 858, 1081.562 858.692, 1079.926 859.538 C 1076.196 861.467, 1067.113 861.638, 1063.349 859.851 C 1057.592 857.117, 1057.003 854.092, 1057.002 827.250 L 1057 803 1070.500 803 L 1084 803 1084 790.500 L 1084 778 1070.500 778 L 1057 778 1057 764.500 L 1057 751 1041 751 L 1025 751 1025 764.500 M 508 775.570 C 499.584 777.770, 488.886 783.572, 483.141 789.051 C 469.587 801.980, 463.670 818.942, 466.061 838.015 C 467.817 852.022, 472.824 861.982, 482.597 870.915 C 494.515 881.807, 506.019 886.001, 526 886.739 C 537.812 887.175, 540.530 886.959, 547.733 885.013 C 556.454 882.658, 565.400 877.894, 570.713 872.775 L 573.926 869.680 570.823 866.090 C 569.117 864.115, 565.307 859.944, 562.357 856.820 L 556.992 851.140 551.892 854.572 C 549.087 856.460, 544.366 858.710, 541.400 859.572 C 535.838 861.189, 524.408 861.621, 519.365 860.405 C 514.683 859.276, 507.686 855.387, 504.860 852.343 C 502.543 849.848, 498 842.031, 498 840.540 C 498 840.243, 516.619 840, 539.375 840 L 580.750 840 581.375 836.875 C 583.089 828.306, 580.518 813.531, 575.559 803.454 C 568.932 789.985, 555.034 779.105, 539.897 775.537 C 531.879 773.647, 515.288 773.664, 508 775.570 M 916 776.538 C 906.354 779.014, 892 785.315, 892 787.073 C 892 787.939, 901.708 807.933, 902.597 808.899 C 902.799 809.118, 905.597 807.895, 908.814 806.180 C 916.650 802.003, 924.897 799.949, 934.178 799.863 C 947.888 799.735, 956.375 804.485, 958.940 813.723 C 961.084 821.443, 962.132 820.998, 941.750 821.017 C 915.909 821.042, 905.864 823.475, 896.688 831.934 C 890.449 837.684, 887.682 844.478, 887.654 854.113 C 887.625 863.921, 890.824 870.940, 898.312 877.496 C 906.877 884.995, 911.932 886.476, 929 886.489 C 943.076 886.500, 943.670 886.414, 949.308 883.557 C 952.502 881.939, 956.665 878.900, 958.558 876.804 L 962 872.994 962 879.497 L 962 886 977 886 L 992 886 991.985 849.750 C 991.969 810.205, 991.445 805.264, 986.261 795.738 C 983.251 790.208, 975.589 782.851, 969.721 779.858 C 957.271 773.506, 933.522 772.039, 916 776.538 M 292.469 776.224 C 292.200 776.926, 292.097 801.800, 292.240 831.500 L 292.500 885.500 308.500 885.500 L 324.500 885.500 324.500 830.500 L 324.500 775.500 308.728 775.224 C 296.661 775.014, 292.842 775.249, 292.469 776.224 M 338 775.581 C 338 776.042, 373.721 861.416, 382.223 881.274 L 384.267 886.047 400.798 885.774 L 417.329 885.500 440.164 831.529 C 452.724 801.845, 463 776.971, 463 776.253 C 463 775.225, 459.789 775.006, 447.863 775.224 L 432.725 775.500 417.376 812 C 408.933 832.075, 401.896 848.872, 401.737 849.327 C 401.579 849.782, 396.089 836.957, 389.538 820.827 C 382.987 804.697, 376.091 787.788, 374.213 783.250 L 370.800 775 354.400 775 C 345.380 775, 338 775.261, 338 775.581 M 518 798.939 C 509.706 800.621, 502.562 806.326, 499.463 813.743 C 496.254 821.423, 494.787 821, 524.625 821 L 551.250 821 550.614 817.819 C 547.950 804.499, 533.069 795.885, 518 798.939 M 926.415 841.421 C 921.169 843.705, 918.731 847.738, 919.256 853.260 C 920.047 861.583, 925.168 865.111, 936.457 865.111 C 951.253 865.111, 960 857.843, 960 845.550 L 960 840 944.750 840.039 C 934.261 840.066, 928.537 840.498, 926.415 841.421" stroke="none" fill="black" fill-rule="evenodd"/>
</svg>